<svg xmlns="http://www.w3.org/2000/svg" width="53.381" height="493.137" viewBox="0 0 53.381 493.137"><defs><style>.cls-1{fill:#fff;}</style></defs><title>ABC Investment vertical</title><g id="Layer_2" data-name="Layer 2"><g id="Layer_1-2" data-name="Layer 1"><path id="ABC_Investment_vertical" data-name="ABC Investment vertical" class="cls-1" d="M37.5,477.74v-18.3l15.182-5.615v-9.567c-.1,0-30.495,11.389-51.993,19.411,0,10.722-.061,9.674.139,9.774.078,0,51.457,19.619,51.646,19.619.32.16.208.931.208-9.7C52.578,483.315,37.6,477.778,37.5,477.74Zm-7-2.634L12.681,468.52,30.5,462Zm6.1-77.015c-4.454,0-8.093,3.152-10.122,7.21a19.22,19.22,0,0,0-1.8,4.644c-1.657-4.735-5.268-9.358-10.26-9.358C4.123,400.587.688,409.4.688,419.651v17.885H52.681V417.155C52.681,405.88,47.826,398.091,36.6,398.091ZM22.317,428.663H7.759c0-8.658-1.446-18.856,7.279-18.856a4.368,4.368,0,0,1,2.773.97C23.219,414.833,22.317,421.787,22.317,428.663Zm23.293,0h-16.5c0-7.548-.166-9.807.554-12.686.693-3.325,2.479-8.319,5.893-8.319a9.386,9.386,0,0,1,7.487,3.119C46.259,414.635,45.61,420.35,45.61,428.663ZM17.118,392.341a24.962,24.962,0,0,0,19.133-.07,28.794,28.794,0,0,0,14.766-12.686c2.391-4.564,3.1-9.3,1.525-15.39-1.343-5.373-5.105-12.355-9.289-14.558l-6.725,6.725c5.385,2.991,9.428,9.657,9.428,14.142,0,7.84-10.37,14.211-19.272,14.211-8.4,0-19.272-5.918-19.272-14.211,0-3.332,3.472-10.3,9.082-14.35l-7-6.447c-4.168,3.241-7.51,9.8-8.735,15.043C-2.592,376.892,5.583,387.576,17.118,392.341Zm9.519-67.309H52.681V321.15H.688v3.882H26.637Zm-.369-38.057c3.067-1.227,6.308-.694,26.413-.694v-3.535c-23.539,0-24.428-.326-27.8.97a13.244,13.244,0,0,0-7.556,6.378c-2.712,4.931-.183,14.165,6.308,17.816h-7v3.466c0,.066-2.867.07,36.048.07V307.91c-26.795,0-25.253.345-27.591-.97C18.481,302.809,16.256,290.789,26.268,286.975Zm26.413-27.033c-37.5-14.346-35.74-13.726-35.841-13.726-.295,0-.207-1.156-.207,3.951l32.581,11.854c-33.849,12.012-32.443,11.408-32.443,11.508-.2,0-.138-.264-.138,2.01,0,2.5-.032,1.872.069,1.872s35.875-13.617,35.979-13.656Zm-.07-39.443c-1.042-3.387-2.215-6.167-4.714-8.665a9.562,9.562,0,0,0-3.327-2.288l-1.733,3.466c5.014,1.791,9.678,10.7,6.585,17.192-2.634,5.27-7.841,7.488-13.379,7.834V209.061c-16.172,0-23.5,12.223-18.787,22.738,5.692,13.281,28.406,13.843,34.8.069A16.212,16.212,0,0,0,52.611,220.5ZM33.339,238.038c-5.547-.336-11.228-2.872-13.656-7.972-2.725-5.994.009-13.348,8.111-16.153a19.208,19.208,0,0,1,5.753-1.246Zm-6.724-58.714-1.8-2.911a.948.948,0,0,0-.278.208c-.764,0-4.249,3.568-5.753,6.031a13.851,13.851,0,0,0-2.5,7c0,6.223,4.03,13.311,10.121,13.311,4.2,0,9.182-4.819,9.775-12.825a17.57,17.57,0,0,1,2.495-7.972c4.625-7.195,11.577-.8,11.577,7.625,0,3.863-3.3,9.731-7.625,12.062l.832,1.733.832,1.664c3.733-1.991,6.456-6.455,7.972-10.814,2.213-7.59-1.041-14.994-5.546-17.747-5.1-3.4-10.431,1.137-12.409,7.071-1.579,4.211-.653,5.255-2.08,9.774-.974,2.5-1.726,3.871-3.743,5.338-4.921,2.871-9.567-3.185-9.567-9.22C18.92,186.42,23.378,181.174,26.615,179.324Zm-9.982-14.278v7.764h2.772v-7.764c25.088,0,28.068.414,30.919-1.248,2.763-2.01,2.357-3.406,2.357-12.132H49.492v4.992c0,2.079-.555,3.466-1.595,4.09-2.3,1.151-3.752.832-28.492.832v-9.914H16.633v9.914H4.362l2.912,3.466Zm9.635-62.528c2.809-.842,3.574-.624,26.413-.624V98.428c-23.607,0-24.2-.275-27.8.832-8.037,2.473-9.828,7.667-7.9,12.617a12.7,12.7,0,0,0,8.18,7.625c-12.735,3.821-10.465,17.6-1.733,22.253H16.633v3.466c0,.1-.052.07.346.07,0-.176,35.7.013,35.7-.07v-3.466H28.556c-4.368,0-9.081-4.527-9.081-10.745,0-4.306,4.072-8.873,11.369-8.873H52.681v-3.466c-23.9,0-22.369-.039-23.016.069-1.33,0-1.109.176-1.109-.069C20.3,118.671,14.1,106,26.268,102.518ZM52.611,70.634c-1.042-3.387-2.215-6.167-4.714-8.665a9.562,9.562,0,0,0-3.327-2.288l-1.733,3.466c4.984,1.78,9.694,10.663,6.585,17.192-2.634,5.269-7.841,7.488-13.379,7.834V59.2c-16.235,0-23.474,12.282-18.787,22.738C22.971,95.27,45.7,95.7,52.057,82A16.212,16.212,0,0,0,52.611,70.634ZM33.339,88.173c-5.524-.335-11.219-2.855-13.656-7.972-2.728-6,.009-13.349,8.111-16.153A19.259,19.259,0,0,1,33.547,62.8ZM26.268,29.39c2.974-1.19,5.775-.693,26.413-.693V25.161c-23.539,0-24.428-.326-27.8.971a13.242,13.242,0,0,0-7.556,6.377c-2.75,5-.109,14.206,6.308,17.816h-7v3.467c0,.065-2.867.069,36.048.069V50.325c-26.793,0-25.251.346-27.591-.97C18.406,45.177,16.325,33.178,26.268,29.39ZM16.633,13.379v7.765h2.772V13.379c25.088,0,28.068.415,30.919-1.247C53.087,10.122,52.681,8.726,52.681,0H49.492V4.991c0,2.08-.555,3.466-1.595,4.09-2.3,1.152-3.752.832-28.492.832V0H16.633V9.913H4.362l2.912,3.466Z"/></g></g></svg>