<svg width="47" height="110" viewBox="0 0 47 110" fill="none" xmlns="http://www.w3.org/2000/svg">
<path d="M44.573 9.706C43.8466 8.94835 42.899 8.44007 41.866 8.254V8.154C44.996 6.854 45.248 2.319 42.43 0.803999C40.661 -0.149001 39.374 0.00999892 31 0.00999892V18.251C38.2 18.251 39.793 18.364 41.431 17.908C42.2035 17.7112 42.9265 17.3558 43.5541 16.8642C44.1816 16.3727 44.6999 15.7559 45.076 15.053C45.4962 14.2028 45.6717 13.2524 45.5829 12.3082C45.4941 11.3639 45.1444 10.463 44.573 9.706ZM39.514 6.221C38.967 7.411 37.119 7.213 35.557 7.213V3.354C36.6405 3.25414 37.733 3.33285 38.791 3.587C39.2254 3.85041 39.5424 4.27018 39.6768 4.76007C39.8113 5.24996 39.753 5.77275 39.514 6.221ZM35.557 14.906V10.337C38.322 10.337 40.874 9.961 40.874 12.579C40.874 15.197 38.015 14.906 35.557 14.906Z" fill="#C9D2FA"/>
<path d="M16.573 9.706C15.8466 8.94835 14.899 8.44007 13.866 8.254V8.154C16.996 6.854 17.248 2.319 14.43 0.803999C12.661 -0.149001 11.374 0.00999892 3 0.00999892V18.251C10.2 18.251 11.793 18.364 13.431 17.908C14.2035 17.7112 14.9265 17.3558 15.5541 16.8642C16.1816 16.3727 16.6999 15.7559 17.076 15.053C17.4962 14.2028 17.6717 13.2524 17.5829 12.3082C17.4941 11.3639 17.1444 10.463 16.573 9.706ZM11.514 6.221C10.967 7.411 9.119 7.213 7.557 7.213V3.354C8.64049 3.25414 9.73302 3.33285 10.791 3.587C11.2254 3.85041 11.5424 4.27018 11.6768 4.76007C11.8113 5.24996 11.753 5.77275 11.514 6.221ZM7.557 14.906V10.337C10.322 10.337 12.874 9.961 12.874 12.579C12.874 15.197 10.015 14.906 7.557 14.906Z" fill="white"/>
<path d="M41.326 30.0072H38.752C38.1067 29.9707 37.461 30.073 36.8586 30.3073C36.2561 30.5416 35.711 30.9023 35.2598 31.3652C34.8087 31.8281 34.462 32.3824 34.2433 32.9907C34.0246 33.5989 33.9389 34.247 33.992 34.8912V37.1432H31.4C31.3471 37.1432 31.2947 37.1537 31.2458 37.1741C31.1969 37.1945 31.1526 37.2245 31.1154 37.2621C31.0782 37.2998 31.0488 37.3445 31.029 37.3936C31.0092 37.4427 30.9994 37.4953 31 37.5482V40.8072C31 40.9133 31.0422 41.015 31.1172 41.0901C31.1922 41.1651 31.2939 41.2072 31.4 41.2072H33.992V49.4402C33.9923 49.5467 34.0343 49.6488 34.1092 49.7246C34.184 49.8003 34.2856 49.8436 34.392 49.8452H37.772C37.8795 49.8452 37.9827 49.8026 38.0588 49.7267C38.1349 49.6507 38.1778 49.5477 38.178 49.4402V41.2152H41.2C41.3061 41.2152 41.4079 41.1731 41.4829 41.0981C41.5579 41.023 41.6 40.9213 41.6 40.8152V37.5522C41.6 37.4457 41.5581 37.3434 41.4832 37.2676C41.4083 37.1918 41.3066 37.1485 41.2 37.1472H38.178C38.178 34.7302 37.888 33.8552 39.591 33.8552H41.325C41.4311 33.8552 41.5329 33.8131 41.6079 33.7381C41.6829 33.663 41.725 33.5613 41.725 33.4552V30.4162C41.729 29.9772 41.226 30.0072 41.326 30.0072Z" fill="#C9D2FA"/>
<path d="M13.326 30.0072H10.752C10.1067 29.9707 9.46101 30.073 8.85857 30.3073C8.25614 30.5416 7.71096 30.9023 7.25981 31.3652C6.80867 31.8281 6.46205 32.3824 6.24335 32.9907C6.02465 33.5989 5.93895 34.247 5.99203 34.8912V37.1432H3.40003C3.34708 37.1432 3.29465 37.1537 3.24579 37.1741C3.19694 37.1945 3.15262 37.2245 3.11541 37.2621C3.0782 37.2998 3.04884 37.3445 3.02903 37.3936C3.00923 37.4427 2.99937 37.4953 3.00003 37.5482V40.8072C3.00003 40.9133 3.04217 41.015 3.11719 41.0901C3.1922 41.1651 3.29394 41.2072 3.40003 41.2072H5.99203V49.4402C5.99228 49.5467 6.03435 49.6488 6.10917 49.7246C6.18399 49.8003 6.28557 49.8436 6.39203 49.8452H9.77203C9.87954 49.8452 9.98265 49.8026 10.0588 49.7267C10.1349 49.6507 10.1778 49.5477 10.178 49.4402V41.2152H13.2C13.3061 41.2152 13.4079 41.1731 13.4829 41.0981C13.5579 41.023 13.6 40.9213 13.6 40.8152V37.5522C13.6 37.4457 13.5581 37.3434 13.4832 37.2676C13.4083 37.1918 13.3066 37.1485 13.2 37.1472H10.178C10.178 34.7302 9.88803 33.8552 11.591 33.8552H13.325C13.4311 33.8552 13.5329 33.8131 13.6079 33.7381C13.6829 33.663 13.725 33.5613 13.725 33.4552V30.4162C13.729 29.9772 13.226 30.0072 13.326 30.0072Z" fill="white"/>
<path d="M45.7344 66.3916C45.6153 65.2385 45.0817 64.1678 44.2327 63.3785C43.3838 62.5891 42.2771 62.1347 41.1184 62.0996C37.1574 62.0046 34.8904 61.9336 31.0164 62.0996C29.8527 62.1806 28.7535 62.6639 27.9073 63.4667C27.061 64.2696 26.5205 65.3418 26.3784 66.4996C25.8845 70.1018 25.874 73.7537 26.3474 77.3586C26.4996 78.5221 27.0407 79.5999 27.8829 80.4168C28.7251 81.2338 29.8189 81.7419 30.9864 81.8586C34.4132 82.1614 37.86 82.1594 41.2864 81.8526C42.3777 81.7496 43.402 81.2801 44.1923 80.5205C44.9826 79.7609 45.4923 78.756 45.6384 77.6696C46.2 73.9335 46.2323 70.1368 45.7344 66.3916ZM43.3784 77.3156C43.3071 77.8986 43.0391 78.4399 42.6185 78.8499C42.1979 79.2599 41.6501 79.5142 41.0654 79.5706C37.7546 79.8651 34.4242 79.8651 31.1134 79.5706C30.4806 79.4811 29.8941 79.1878 29.443 78.735C28.9919 78.2823 28.7006 77.6948 28.6134 77.0616C28.167 73.6549 28.1764 70.2039 28.6414 66.7996C28.7136 66.1745 28.9987 65.5932 29.4489 65.1535C29.899 64.7137 30.4868 64.4422 31.1134 64.3846C32.7854 64.3136 34.1574 64.2846 35.4714 64.2846C37.2464 64.2846 38.9134 64.3326 41.0654 64.3846C41.6804 64.4095 42.2649 64.6588 42.7085 65.0854C43.1522 65.5119 43.4243 66.0861 43.4734 66.6996C43.937 70.2254 43.9051 73.7987 43.3784 77.3156ZM41.1284 65.5916C40.8642 65.5908 40.6057 65.6685 40.3856 65.8147C40.1656 65.9609 39.9938 66.1691 39.8922 66.413C39.7905 66.6568 39.7635 66.9254 39.8146 67.1846C39.8656 67.4438 39.9925 67.6821 40.179 67.8692C40.3656 68.0563 40.6034 68.1838 40.8625 68.2357C41.1216 68.2875 41.3902 68.2613 41.6344 68.1604C41.8785 68.0595 42.0873 67.8883 42.2341 67.6687C42.381 67.4491 42.4594 67.1908 42.4594 66.9266C42.4597 66.7516 42.4255 66.5782 42.3587 66.4164C42.292 66.2545 42.194 66.1074 42.0704 65.9835C41.9468 65.8595 41.8 65.7611 41.6384 65.6939C41.4768 65.6266 41.3035 65.5919 41.1284 65.5916ZM36.0574 66.4496C34.9947 66.4469 33.9551 66.7594 33.0702 67.3478C32.1853 67.9362 31.4948 68.7739 31.0862 69.7549C30.6776 70.7359 30.5693 71.8161 30.7749 72.8587C30.9805 73.9012 31.4909 74.8594 32.2413 75.6118C32.9917 76.3642 33.9486 76.8771 34.9906 77.0854C36.0327 77.2937 37.1131 77.1882 38.0952 76.7822C39.0772 76.3762 39.9167 75.6879 40.5074 74.8045C41.0981 73.9211 41.4134 72.8823 41.4134 71.8196C41.4137 70.3978 40.8499 69.0338 39.8458 68.0271C38.8417 67.0204 37.4793 66.4531 36.0574 66.4496ZM36.0574 74.9006C35.4475 74.9022 34.8508 74.7228 34.3429 74.385C33.835 74.0473 33.4387 73.5665 33.2042 73.0034C32.9698 72.4403 32.9076 71.8203 33.0257 71.2219C33.1438 70.6235 33.4368 70.0736 33.8676 69.6418C34.2984 69.21 34.8477 68.9158 35.4458 68.7963C36.0439 68.6769 36.6641 68.7376 37.2277 68.9708C37.7913 69.2039 38.273 69.5991 38.6119 70.1063C38.9508 70.6134 39.1316 71.2097 39.1314 71.8196C39.1319 72.6356 38.8084 73.4184 38.232 73.996C37.6556 74.5735 36.8734 74.8986 36.0574 74.8996V74.9006Z" fill="#C9D2FA"/>
<path d="M19.7344 66.3916C19.6153 65.2383 19.0815 64.1675 18.2323 63.3781C17.3832 62.5887 16.2763 62.1344 15.1174 62.0996C11.1574 62.0046 8.89041 61.9336 5.01641 62.0996C3.85275 62.1806 2.75351 62.6639 1.90726 63.4667C1.061 64.2696 0.520485 65.3418 0.378415 66.4996C-0.115537 70.1018 -0.125963 73.7537 0.347415 77.3586C0.499551 78.5221 1.0407 79.5999 1.88291 80.4168C2.72512 81.2338 3.81888 81.7419 4.98641 81.8586C8.41316 82.1614 11.86 82.1594 15.2864 81.8526C16.3777 81.7496 17.402 81.2801 18.1923 80.5205C18.9826 79.7609 19.4923 78.756 19.6384 77.6696C20.2 73.9335 20.2323 70.1368 19.7344 66.3916V66.3916ZM17.3784 77.3156C17.3071 77.8986 17.0391 78.4399 16.6185 78.8499C16.1979 79.2599 15.6501 79.5142 15.0654 79.5706C11.7546 79.8651 8.42421 79.8651 5.11341 79.5706C4.48057 79.4811 3.89414 79.1878 3.44301 78.735C2.99187 78.2823 2.70063 77.6948 2.61342 77.0616C2.16745 73.6549 2.17687 70.2039 2.64142 66.7996C2.71362 66.1745 2.99873 65.5932 3.44887 65.1535C3.89901 64.7137 4.48676 64.4422 5.11341 64.3846C6.78541 64.3136 8.15741 64.2846 9.47141 64.2846C11.2464 64.2846 12.9134 64.3326 15.0654 64.3846C15.6804 64.4093 16.2651 64.6585 16.7088 65.0851C17.1525 65.5117 17.4245 66.0861 17.4734 66.6996C17.937 70.2254 17.9051 73.7987 17.3784 77.3156V77.3156ZM15.1284 65.5916C14.8642 65.5908 14.6057 65.6685 14.3856 65.8147C14.1656 65.9609 13.9938 66.1691 13.8922 66.413C13.7905 66.6568 13.7635 66.9254 13.8146 67.1846C13.8656 67.4438 13.9925 67.6821 14.179 67.8692C14.3656 68.0563 14.6034 68.1838 14.8625 68.2357C15.1216 68.2875 15.3902 68.2613 15.6344 68.1604C15.8785 68.0595 16.0873 67.8883 16.2341 67.6687C16.381 67.4491 16.4594 67.1908 16.4594 66.9266C16.4597 66.7516 16.4255 66.5782 16.3587 66.4164C16.292 66.2545 16.194 66.1074 16.0704 65.9835C15.9468 65.8595 15.8 65.7611 15.6384 65.6939C15.4768 65.6266 15.3035 65.5919 15.1284 65.5916V65.5916ZM10.0574 66.4496C8.99474 66.4469 7.95513 66.7594 7.0702 67.3478C6.18527 67.9362 5.4948 68.7739 5.08621 69.7549C4.67762 70.7359 4.56928 71.8161 4.7749 72.8587C4.98052 73.9012 5.49085 74.8594 6.2413 75.6118C6.99175 76.3642 7.94856 76.8771 8.99062 77.0854C10.0327 77.2937 11.1131 77.1882 12.0952 76.7822C13.0772 76.3762 13.9167 75.6879 14.5074 74.8045C15.0981 73.9211 15.4134 72.8823 15.4134 71.8196C15.4137 70.3978 14.8499 69.0338 13.8458 68.0271C12.8417 67.0204 11.4793 66.4531 10.0574 66.4496V66.4496ZM10.0574 74.9006C9.44747 74.9022 8.85077 74.7228 8.34287 74.385C7.83496 74.0473 7.43869 73.5665 7.20422 73.0034C6.96976 72.4403 6.90764 71.8203 7.02574 71.2219C7.14383 70.6235 7.43683 70.0736 7.86763 69.6418C8.29844 69.21 8.84768 68.9158 9.44581 68.7963C10.0439 68.6769 10.6641 68.7376 11.2277 68.9708C11.7913 69.2039 12.273 69.5991 12.6119 70.1063C12.9508 70.6134 13.1316 71.2097 13.1314 71.8196C13.1319 72.6356 12.8084 73.4184 12.232 73.996C11.6556 74.5735 10.8734 74.8986 10.0574 74.8996V74.9006Z" fill="white"/>
<path d="M45.563 95.7713C44.8685 96.0798 44.1316 96.282 43.377 96.3713C44.1718 95.8945 44.7672 95.1461 45.053 94.2643C44.3037 94.7093 43.4834 95.0218 42.628 95.1883C42.0526 94.5822 41.2941 94.1817 40.469 94.0487C39.6438 93.9156 38.7979 94.0572 38.0611 94.4518C37.3243 94.8464 36.7375 95.472 36.391 96.2326C36.0444 96.9931 35.9573 97.8465 36.143 98.6613C34.6289 98.5865 33.1474 98.1941 31.7948 97.5094C30.4422 96.8248 29.2488 95.8633 28.292 94.6873C27.8063 95.525 27.6578 96.5161 27.8766 97.4593C28.0954 98.4025 28.6652 99.2271 29.47 99.7653C28.8659 99.7469 28.2752 99.5829 27.748 99.2873C27.7372 100.175 28.036 101.039 28.593 101.73C29.15 102.421 29.9304 102.896 30.8 103.074C30.238 103.222 29.6502 103.243 29.079 103.136C29.3222 103.894 29.7958 104.556 30.4337 105.031C31.0715 105.507 31.8418 105.771 32.637 105.787C31.0384 107.033 29.0124 107.597 27 107.356C28.6353 108.411 30.5248 109.004 32.4693 109.074C34.4137 109.145 36.3411 108.689 38.0481 107.755C39.7551 106.821 41.1785 105.444 42.1681 103.769C43.1578 102.093 43.677 100.182 43.671 98.2363L43.659 97.7433C44.4103 97.2096 45.0559 96.5409 45.563 95.7713Z" fill="#C9D2FA"/>
<path d="M21.563 95.7713C20.8685 96.0798 20.1316 96.282 19.377 96.3713C20.1718 95.8945 20.7672 95.1461 21.053 94.2643C20.3037 94.7093 19.4834 95.0218 18.628 95.1883C18.0526 94.5822 17.2941 94.1817 16.469 94.0487C15.6438 93.9156 14.7979 94.0572 14.0611 94.4518C13.3243 94.8464 12.7375 95.472 12.391 96.2326C12.0444 96.9931 11.9573 97.8465 12.143 98.6613C10.6289 98.5865 9.14738 98.1941 7.7948 97.5094C6.44222 96.8248 5.24878 95.8633 4.292 94.6873C3.80635 95.525 3.65783 96.5161 3.87664 97.4593C4.09544 98.4025 4.66516 99.2271 5.47 99.7653C4.8659 99.7469 4.27518 99.5829 3.748 99.2873C3.73717 100.175 4.03595 101.039 4.59296 101.73C5.14996 102.421 5.93038 102.896 6.8 103.074C6.23798 103.222 5.65019 103.243 5.079 103.136C5.32224 103.894 5.79582 104.556 6.43365 105.031C7.07148 105.507 7.84176 105.771 8.637 105.787C7.03835 107.033 5.01237 107.597 3 107.356C4.63528 108.411 6.52479 109.004 8.46927 109.074C10.4137 109.145 12.3411 108.689 14.0481 107.755C15.7551 106.821 17.1785 105.444 18.1681 103.769C19.1578 102.093 19.677 100.182 19.671 98.2363L19.659 97.7433C20.4103 97.2096 21.0559 96.5409 21.563 95.7713Z" fill="white"/>
</svg>
